# Blender v2.74 (sub 0) OBJ File: 'stool.blend'
# www.blender.org
mtllib stool.mtl
o Cube.001_Cube.002
v 2.580570 0.627069 2.239470
v 2.580570 0.627069 2.046771
v 2.685195 -0.122789 2.136770
v 2.685195 -0.122789 2.329471
v 1.365473 0.642070 1.006902
v 1.365473 0.642070 0.832540
v 1.290098 -0.107788 0.742540
v 1.290098 -0.107788 0.916902
v 2.380653 0.627069 2.046771
v 2.485278 -0.122789 2.136770
v 1.173639 0.627069 1.006902
v 1.098264 -0.122788 0.916902
v 2.580570 0.627069 1.006902
v 2.580570 0.627069 0.832540
v 2.685195 -0.122788 0.742540
v 2.685195 -0.122788 0.916902
v 1.365473 0.627069 2.046771
v 1.173639 0.627069 2.046771
v 1.098264 -0.122789 2.136770
v 1.290098 -0.122789 2.136770
v 2.380653 0.627069 0.832540
v 2.485278 -0.122788 0.742540
v 1.173639 0.627069 2.239470
v 1.098264 -0.122789 2.329471
v 2.380653 0.627069 1.006902
v 2.485278 -0.122788 0.916902
v 1.365473 0.627069 2.239470
v 1.290098 -0.122789 2.329471
v 1.173639 0.627069 0.832540
v 1.098264 -0.122788 0.742540
v 2.485278 -0.122789 2.329471
v 1.541348 2.391737 1.216902
v 1.349515 2.376737 1.216902
v 1.349515 2.376736 1.836771
v 1.541348 2.376736 1.836771
v 2.136529 2.376737 1.216902
v 2.136529 2.376736 1.836771
v 2.336446 2.376737 1.216902
v 2.336446 2.376736 1.836771
v 2.380653 0.627069 2.239470
v 2.136529 2.376737 1.042541
v 1.541348 2.391737 1.042541
v 1.541348 2.376736 2.029471
v 2.136529 2.376736 2.029471
v 1.148913 2.378993 1.252907
v 1.106598 2.378993 1.392402
v 1.092309 2.378992 1.537472
v 1.835913 2.378992 1.537472
v 2.579518 2.378992 1.537471
v 2.565229 2.378993 1.392402
v 2.522914 2.378993 1.252906
v 2.454199 2.378993 1.124347
v 2.361721 2.378993 1.011664
v 2.249038 2.378993 0.919187
v 2.120478 2.378993 0.850471
v 1.980983 2.378993 0.808156
v 1.835913 2.378993 0.793868
v 1.690844 2.378993 0.808156
v 1.551349 2.378993 0.850472
v 1.422789 2.378993 0.919188
v 1.310106 2.378993 1.011664
v 1.217629 2.378993 1.124348
v 1.106598 2.378992 1.682542
v 1.148913 2.378992 1.822037
v 1.217629 2.378992 1.950596
v 1.310106 2.378992 2.063280
v 1.422789 2.378992 2.155757
v 1.551349 2.378992 2.224473
v 1.690844 2.378992 2.266789
v 1.835914 2.378992 2.281076
v 1.980984 2.378992 2.266789
v 2.120479 2.378992 2.224473
v 2.249038 2.378992 2.155757
v 2.361721 2.378992 2.063280
v 2.454199 2.378992 1.950596
v 2.522916 2.378992 1.822037
v 2.565230 2.378992 1.682541
v 1.141409 2.732969 1.249799
v 1.210876 2.732969 1.119835
v 1.304363 2.732969 1.005921
v 1.418277 2.732969 0.912435
v 1.548240 2.732969 0.842968
v 1.689260 2.732969 0.800189
v 1.835913 2.732969 0.785744
v 1.982567 2.732969 0.800189
v 2.123586 2.732969 0.842967
v 2.253550 2.732969 0.912434
v 2.367465 2.732969 1.005921
v 2.460952 2.732969 1.119834
v 2.530418 2.732969 1.249798
v 2.573196 2.732969 1.390818
v 2.587642 2.732968 1.537472
v 2.573197 2.732968 1.684125
v 2.530420 2.732968 1.825145
v 2.460953 2.732968 1.955109
v 2.367464 2.732968 2.069023
v 2.253550 2.732968 2.162510
v 2.123587 2.732968 2.231977
v 1.982568 2.732968 2.274756
v 1.835914 2.732968 2.289200
v 1.689260 2.732968 2.274756
v 1.548240 2.732968 2.231977
v 1.418277 2.732968 2.162510
v 1.304363 2.732968 2.069023
v 1.210876 2.732968 1.955109
v 1.141409 2.732968 1.825145
v 1.098631 2.732968 1.684126
v 1.084185 2.732968 1.537472
v 1.098631 2.732969 1.390819
v 2.621002 2.696412 1.693635
v 2.575451 2.696412 1.843797
v 1.529588 2.696413 0.797936
v 1.679751 2.696413 0.752385
v 1.269898 2.696412 2.103488
v 1.170349 2.696412 1.982188
v 1.835913 2.696413 0.737003
v 1.992076 2.696413 0.752384
v 2.501479 2.696412 1.982188
v 2.401930 2.696412 2.103488
v 1.096378 2.696412 1.843798
v 1.050826 2.696412 1.693635
v 2.142238 2.696413 0.797936
v 2.280629 2.696413 0.871907
v 2.280630 2.696412 2.203036
v 2.142239 2.696412 2.277008
v 1.035445 2.696412 1.537472
v 1.050826 2.696413 1.381310
v 2.401930 2.696413 0.971456
v 2.501479 2.696413 1.092755
v 1.992077 2.696412 2.322560
v 1.835914 2.696412 2.337941
v 2.575449 2.696413 1.231146
v 2.621001 2.696413 1.381309
v 1.269898 2.696413 0.971457
v 1.391198 2.696413 0.871908
v 1.679751 2.696412 2.322560
v 1.529588 2.696412 2.277008
v 2.636382 2.696412 1.537471
v 1.391198 2.696412 2.203037
v 1.096378 2.696413 1.231147
v 1.170349 2.696413 1.092756
v 2.401930 2.583635 0.971456
v 2.501479 2.583635 1.092755
v 1.992077 2.583634 2.322560
v 1.835914 2.583634 2.337941
v 2.575449 2.583635 1.231146
v 2.621001 2.583635 1.381309
v 1.269898 2.583635 0.971457
v 1.391198 2.583635 0.871908
v 1.679751 2.583634 2.322560
v 1.529588 2.583634 2.277008
v 2.636382 2.583634 1.537471
v 2.621002 2.583634 1.693635
v 1.529588 2.583635 0.797936
v 1.391198 2.583634 2.203037
v 1.269898 2.583634 2.103488
v 1.679751 2.583635 0.752385
v 1.835913 2.583635 0.737003
v 2.575451 2.583634 1.843797
v 2.501479 2.583634 1.982188
v 1.170349 2.583634 1.982188
v 1.096378 2.583634 1.843798
v 1.992076 2.583635 0.752384
v 2.142238 2.583635 0.797936
v 2.401930 2.583634 2.103488
v 2.280630 2.583634 2.203036
v 1.050826 2.583634 1.693635
v 1.035445 2.583634 1.537472
v 2.280629 2.583635 0.871907
v 2.142239 2.583634 2.277008
v 1.050826 2.583635 1.381310
v 1.096378 2.583635 1.231147
v 1.170349 2.583635 1.092756
v 2.454199 2.506472 1.124347
v 2.522914 2.506472 1.252906
v 1.148913 2.506472 1.252907
v 1.217629 2.506472 1.124348
v 1.835914 2.506471 2.281076
v 1.690844 2.506471 2.266789
v 2.565229 2.506472 1.392402
v 2.579518 2.506471 1.537471
v 1.310106 2.506472 1.011664
v 1.551349 2.506471 2.224473
v 1.422789 2.506471 2.155757
v 2.565230 2.506471 1.682541
v 2.522916 2.506471 1.822037
v 1.551349 2.506472 0.850472
v 1.690844 2.506472 0.808156
v 1.310106 2.506471 2.063280
v 1.217629 2.506471 1.950596
v 1.835913 2.506472 0.793868
v 1.980983 2.506472 0.808156
v 2.454199 2.506471 1.950596
v 2.361721 2.506471 2.063280
v 1.148913 2.506471 1.822037
v 1.106598 2.506471 1.682542
v 2.120478 2.506472 0.850471
v 2.249038 2.506472 0.919187
v 2.249038 2.506471 2.155757
v 2.120479 2.506471 2.224473
v 1.092309 2.506471 1.537472
v 1.106598 2.506472 1.392402
v 2.361721 2.506472 1.011664
v 1.980984 2.506471 2.266789
v 1.422789 2.506472 0.919188
v 2.368447 0.714552 2.228971
v 2.568364 0.714552 2.228971
v 2.368447 0.714552 2.036270
v 2.568364 0.714552 2.036270
v 1.374266 0.729553 0.843040
v 1.182433 0.714552 0.843040
v 1.182433 0.714552 1.017401
v 1.374266 0.729553 1.017401
v 2.368447 0.714552 1.017401
v 2.568364 0.714552 1.017401
v 2.368447 0.714552 0.843040
v 2.568364 0.714552 0.843040
v 1.182433 0.714552 2.228971
v 1.374266 0.714552 2.228971
v 1.374266 0.714552 2.036270
v 1.182433 0.714552 2.036270
v 1.349515 2.376737 1.042541
v 2.336446 2.376737 1.042541
v 2.336446 2.376736 2.029471
v 1.349515 2.376736 2.029471
vn -0.990400 -0.138200 -0.000000
vn -0.995000 0.100000 0.000000
vn 0.000000 0.119200 0.992900
vn -0.009400 0.120100 -0.992700
vn 0.000000 -0.119200 0.992900
vn 0.995000 -0.100000 -0.000000
vn 0.990400 0.138200 0.000000
vn 0.000000 0.119200 -0.992900
vn 0.000000 1.000000 0.000000
vn -0.078000 0.997000 0.000000
vn -0.039100 0.999200 0.012100
vn 0.012600 0.999800 0.012100
vn 0.000000 -0.119200 -0.992900
vn 0.025200 0.999700 0.000000
vn 0.009400 -0.120100 0.992700
vn -0.000000 -1.000000 0.000000
vn -0.575900 -0.798600 -0.174700
vn 0.174700 -0.798600 0.575900
vn 0.465200 -0.798600 -0.381800
vn -0.059000 -0.798600 0.599000
vn -0.465200 -0.798600 -0.381800
vn 0.575900 -0.798600 -0.174700
vn -0.283700 -0.798600 0.530800
vn -0.283700 -0.798600 -0.530800
vn 0.599000 -0.798600 0.059000
vn -0.465200 -0.798600 0.381800
vn -0.059000 -0.798600 -0.599000
vn -0.575900 -0.798600 0.174700
vn 0.381800 -0.798600 0.465200
vn 0.174700 -0.798600 -0.575900
vn -0.599000 -0.798600 -0.059000
vn 0.283700 -0.798600 0.530800
vn 0.381800 -0.798600 -0.465200
vn 0.059000 -0.798600 0.599000
vn -0.530800 -0.798600 -0.283700
vn 0.530800 -0.798600 -0.283700
vn -0.174700 -0.798600 0.575900
vn -0.381800 -0.798600 -0.465200
vn 0.599000 -0.798600 -0.059000
vn -0.381800 -0.798600 0.465200
vn -0.174700 -0.798600 -0.575900
vn 0.575900 -0.798600 0.174700
vn -0.530800 -0.798600 0.283700
vn 0.530800 -0.798600 0.283700
vn 0.059000 -0.798600 -0.599000
vn -0.599000 -0.798600 0.059000
vn 0.465200 -0.798600 0.381800
vn 0.283700 -0.798600 -0.530800
vn -0.773000 0.000000 0.634400
vn -0.098000 0.000000 -0.995200
vn -0.956900 0.000000 0.290300
vn 0.634400 -0.000000 0.773000
vn 0.290300 0.000000 -0.956900
vn -0.995200 0.000000 -0.098000
vn 0.471400 -0.000000 0.881900
vn 0.634400 0.000000 -0.773000
vn 0.098000 -0.000000 0.995200
vn -0.881900 0.000000 -0.471400
vn 0.881900 0.000000 -0.471400
vn -0.290300 -0.000000 0.956900
vn -0.634400 0.000000 -0.773000
vn 0.995200 0.000000 -0.098000
vn -0.634400 -0.000000 0.773000
vn -0.290300 0.000000 -0.956900
vn 0.956900 0.000000 0.290300
vn -0.881900 0.000000 0.471400
vn 0.881900 0.000000 0.471400
vn 0.098000 0.000000 -0.995200
vn -0.995200 0.000000 0.098000
vn 0.773000 -0.000000 0.634400
vn 0.471400 0.000000 -0.881900
vn -0.956900 0.000000 -0.290300
vn 0.290300 -0.000000 0.956900
vn 0.773000 0.000000 -0.634400
vn -0.098000 -0.000000 0.995200
vn -0.773000 0.000000 -0.634400
vn 0.956900 0.000000 -0.290300
vn -0.471400 0.000000 0.881900
vn -0.471400 0.000000 -0.881900
vn 0.995200 0.000000 0.098000
vn -0.711200 0.591400 0.380100
vn 0.711200 0.591400 0.380100
vn 0.079000 0.591400 -0.802500
vn -0.802500 0.591400 0.079000
vn 0.623300 0.591400 0.511600
vn 0.380100 0.591400 -0.711200
vn -0.771700 0.591400 -0.234100
vn 0.234100 0.591400 0.771700
vn 0.623300 0.591400 -0.511600
vn -0.079000 0.591400 0.802500
vn -0.623300 0.591400 -0.511600
vn 0.771700 0.591400 -0.234100
vn -0.380100 0.591400 0.711200
vn -0.380100 0.591400 -0.711200
vn 0.802500 0.591400 0.079000
vn -0.623300 0.591400 0.511600
vn -0.079000 0.591400 -0.802500
vn -0.771700 0.591400 0.234100
vn 0.511600 0.591400 0.623300
vn 0.234100 0.591400 -0.771700
vn -0.802500 0.591400 -0.079000
vn 0.380100 0.591400 0.711200
vn 0.511600 0.591400 -0.623300
vn 0.079000 0.591400 0.802500
vn -0.711200 0.591400 -0.380100
vn 0.711200 0.591400 -0.380100
vn -0.234100 0.591400 0.771700
vn -0.511600 0.591400 -0.623300
vn 0.802500 0.591400 -0.079000
vn -0.511600 0.591400 0.623300
vn -0.234100 0.591400 -0.771700
vn 0.771700 0.591400 0.234100
vn 0.039100 -0.999200 -0.007200
vn 0.995000 -0.100000 -0.001500
vn 0.039100 -0.999200 -0.007400
vn -0.014800 -0.999900 0.000000
vn 0.001800 0.119200 -0.992900
vn -0.001800 -0.119200 0.992900
vn -0.015100 -0.999900 0.000000
usemtl None
s 1
f 1//1 2//1 3//1 4//1
f 5//2 6//2 7//2 8//2
f 2//3 9//3 10//3 3//3
f 11//4 5//4 8//4 12//4
f 13//1 14//1 15//1 16//1
f 17//3 18//3 19//3 20//3
f 14//5 21//5 22//5 15//5
f 18//6 23//6 24//6 19//6
f 21//7 25//7 26//7 22//7
f 27//2 17//2 20//2 28//2
f 29//6 11//6 12//6 30//6
f 25//8 13//8 16//8 26//8
f 3//9 10//9 31//9 4//9
f 15//9 22//9 26//9 16//9
f 7//10 30//10 12//10 8//10
f 20//9 19//9 24//9 28//9
f 32//11 33//11 34//11 35//11
f 36//12 32//12 35//12 37//12
f 38//9 36//9 37//9 39//9
f 23//13 27//13 28//13 24//13
f 9//7 40//7 31//7 10//7
f 40//13 1//13 4//13 31//13
f 41//14 42//14 32//14 36//14
f 37//9 35//9 43//9 44//9
f 6//15 29//15 30//15 7//15
f 45//9 46//9 47//9 48//9 49//9 50//9 51//9 52//9 53//9 54//9 55//9 56//9 57//9 58//9 59//9 60//9 61//9 62//9
f 49//9 48//9 47//9 63//9 64//9 65//9 66//9 67//9 68//9 69//9 70//9 71//9 72//9 73//9 74//9 75//9 76//9 77//9
f 78//16 79//16 80//16 81//16 82//16 83//16 84//16 85//16 86//16 87//16 88//16 89//16 90//16 91//16 92//16 93//16 94//16 95//16 96//16 97//16 98//16 99//16 100//16 101//16 102//16 103//16 104//16 105//16 106//16 107//16 108//16 109//16
f 110//17 111//17 94//17 93//17
f 112//18 113//18 83//18 82//18
f 114//19 115//19 105//19 104//19
f 116//20 117//20 85//20 84//20
f 118//21 119//21 96//21 95//21
f 120//22 121//22 107//22 106//22
f 122//23 123//23 87//23 86//23
f 124//24 125//24 98//24 97//24
f 126//25 127//25 109//25 108//25
f 128//26 129//26 89//26 88//26
f 130//27 131//27 100//27 99//27
f 132//28 133//28 91//28 90//28
f 134//29 135//29 81//29 80//29
f 136//30 137//30 102//30 101//30
f 138//31 110//31 93//31 92//31
f 135//32 112//32 82//32 81//32
f 139//33 114//33 104//33 103//33
f 113//34 116//34 84//34 83//34
f 111//35 118//35 95//35 94//35
f 115//36 120//36 106//36 105//36
f 117//37 122//37 86//37 85//37
f 119//38 124//38 97//38 96//38
f 121//39 126//39 108//39 107//39
f 123//40 128//40 88//40 87//40
f 125//41 130//41 99//41 98//41
f 127//42 140//42 78//42 109//42
f 129//43 132//43 90//43 89//43
f 140//44 141//44 79//44 78//44
f 131//45 136//45 101//45 100//45
f 133//46 138//46 92//46 91//46
f 141//47 134//47 80//47 79//47
f 137//48 139//48 103//48 102//48
f 142//49 143//49 129//49 128//49
f 144//50 145//50 131//50 130//50
f 146//51 147//51 133//51 132//51
f 148//52 149//52 135//52 134//52
f 150//53 151//53 137//53 136//53
f 152//54 153//54 110//54 138//54
f 149//55 154//55 112//55 135//55
f 155//56 156//56 114//56 139//56
f 157//57 158//57 116//57 113//57
f 159//58 160//58 118//58 111//58
f 161//59 162//59 120//59 115//59
f 163//60 164//60 122//60 117//60
f 165//61 166//61 124//61 119//61
f 167//62 168//62 126//62 121//62
f 169//63 142//63 128//63 123//63
f 170//64 144//64 130//64 125//64
f 171//65 172//65 140//65 127//65
f 143//66 146//66 132//66 129//66
f 172//67 173//67 141//67 140//67
f 145//68 150//68 136//68 131//68
f 147//69 152//69 138//69 133//69
f 173//70 148//70 134//70 141//70
f 151//71 155//71 139//71 137//71
f 153//72 159//72 111//72 110//72
f 154//73 157//73 113//73 112//73
f 156//74 161//74 115//74 114//74
f 158//75 163//75 117//75 116//75
f 160//76 165//76 119//76 118//76
f 162//77 167//77 121//77 120//77
f 164//78 169//78 123//78 122//78
f 166//79 170//79 125//79 124//79
f 168//80 171//80 127//80 126//80
f 174//81 175//81 146//81 143//81
f 176//82 177//82 173//82 172//82
f 178//83 179//83 150//83 145//83
f 180//84 181//84 152//84 147//84
f 177//85 182//85 148//85 173//85
f 183//86 184//86 155//86 151//86
f 185//87 186//87 159//87 153//87
f 187//88 188//88 157//88 154//88
f 189//89 190//89 161//89 156//89
f 191//90 192//90 163//90 158//90
f 193//91 194//91 165//91 160//91
f 195//92 196//92 167//92 162//92
f 197//93 198//93 169//93 164//93
f 199//94 200//94 170//94 166//94
f 201//95 202//95 171//95 168//95
f 203//96 174//96 143//96 142//96
f 204//97 178//97 145//97 144//97
f 175//98 180//98 147//98 146//98
f 182//99 205//99 149//99 148//99
f 179//100 183//100 151//100 150//100
f 181//101 185//101 153//101 152//101
f 205//102 187//102 154//102 149//102
f 184//103 189//103 156//103 155//103
f 188//104 191//104 158//104 157//104
f 186//105 193//105 160//105 159//105
f 190//106 195//106 162//106 161//106
f 192//107 197//107 164//107 163//107
f 194//108 199//108 166//108 165//108
f 196//109 201//109 168//109 167//109
f 198//110 203//110 142//110 169//110
f 200//111 204//111 144//111 170//111
f 202//112 176//112 172//112 171//112
f 53//49 52//49 174//49 203//49
f 71//50 70//50 178//50 204//50
f 51//51 50//51 180//51 175//51
f 61//52 60//52 205//52 182//52
f 69//53 68//53 183//53 179//53
f 49//54 77//54 185//54 181//54
f 60//55 59//55 187//55 205//55
f 67//56 66//56 189//56 184//56
f 58//57 57//57 191//57 188//57
f 76//58 75//58 193//58 186//58
f 65//59 64//59 195//59 190//59
f 56//60 55//60 197//60 192//60
f 74//61 73//61 199//61 194//61
f 63//62 47//62 201//62 196//62
f 54//63 53//63 203//63 198//63
f 72//64 71//64 204//64 200//64
f 46//65 45//65 176//65 202//65
f 52//66 51//66 175//66 174//66
f 45//67 62//67 177//67 176//67
f 70//68 69//68 179//68 178//68
f 50//69 49//69 181//69 180//69
f 62//70 61//70 182//70 177//70
f 68//71 67//71 184//71 183//71
f 77//72 76//72 186//72 185//72
f 59//73 58//73 188//73 187//73
f 66//74 65//74 190//74 189//74
f 57//75 56//75 192//75 191//75
f 75//76 74//76 194//76 193//76
f 64//77 63//77 196//77 195//77
f 55//78 54//78 198//78 197//78
f 73//79 72//79 200//79 199//79
f 47//80 46//80 202//80 201//80
f 206//13 207//13 1//13 40//13
f 208//7 206//7 40//7 9//7
f 209//3 208//3 9//3 2//3
f 207//1 209//1 2//1 1//1
f 210//15 211//15 29//15 6//15
f 211//6 212//6 11//6 29//6
f 212//4 213//4 5//4 11//4
f 213//2 210//2 6//2 5//2
f 214//8 215//8 13//8 25//8
f 216//7 214//7 25//7 21//7
f 217//5 216//5 21//5 14//5
f 215//1 217//1 14//1 13//1
f 218//13 219//13 27//13 23//13
f 219//2 220//2 17//2 27//2
f 221//6 218//6 23//6 18//6
f 220//3 221//3 18//3 17//3
f 32//2 42//2 210//2 213//2
f 33//4 32//4 213//4 212//4
f 222//6 33//6 212//6 211//6
f 42//15 222//15 211//15 210//15
f 38//1 223//1 217//1 215//1
f 223//5 41//5 216//5 217//5
f 41//7 36//7 214//7 216//7
f 36//8 38//8 215//8 214//8
f 224//1 39//1 209//1 207//1
f 39//3 37//3 208//3 209//3
f 37//7 44//7 206//7 208//7
f 44//13 224//13 207//13 206//13
f 35//3 34//3 221//3 220//3
f 34//6 225//6 218//6 221//6
f 43//2 35//2 220//2 219//2
f 225//13 43//13 219//13 218//13
f 18//2 221//2 212//2 11//2
f 18//113 11//113 5//113 17//113
f 5//114 213//114 220//114 17//114
f 221//115 212//115 213//115 220//115
f 40//16 27//16 17//16 9//16
f 17//13 220//13 208//13 9//13
f 206//16 219//16 220//16 208//16
f 219//3 27//3 40//3 206//3
f 9//16 25//16 13//16 2//16
f 214//1 25//1 9//1 208//1
f 215//16 209//16 208//16 214//16
f 215//1 13//1 2//1 209//1
f 21//116 25//116 5//116 6//116
f 6//117 210//117 216//117 21//117
f 213//118 5//118 25//118 214//118
f 214//119 213//119 210//119 216//119
